<svg width="13" height="14" xmlns="http://www.w3.org/2000/svg" xmlns:xlink="http://www.w3.org/1999/xlink"><defs><path id="a" d="M0 .004h12.997v13.023H0z"/></defs><g fill="none" fill-rule="evenodd"><g transform="translate(0 .083)"><mask id="b" fill="#fff"><use xlink:href="#a"/></mask><path d="M2.181 12.129h9.92v-9.94h-9.92v9.94zm9.92-10.839c.496 0 .897.402.897.898v9.941a.897.897 0 01-.896.898H2.18a.897.897 0 01-.896-.898v-9.94c0-.497.4-.899.896-.899h9.92z" fill="#4E7AFF" mask="url(#b)"/><path d="M9.652.003a.449.449 0 01.08.89l-.08.008H1.285a.388.388 0 00-.382.319l-.007.07v8.384a.449.449 0 01-.889.081L0 9.675V1.29C0 .62.51.071 1.16.01l.125-.007h8.367z" fill="#4E7AFF" mask="url(#b)"/></g><path d="M7.141 4.165c.21 0 .385.149.425.346l.009.087v5.528a.433.433 0 01-.858.087l-.009-.087V4.598c0-.239.194-.433.433-.433z" fill="#4E7AFF" fill-rule="nonzero"/><path d="M7.403 4.225l.075.056 2.097 1.943a.433.433 0 01-.52.689l-.07-.053-1.81-1.678-1.914 1.685a.433.433 0 01-.572-.65l2.208-1.944a.433.433 0 01.506-.048z" fill="#4E7AFF" fill-rule="nonzero"/></g></svg>